<svg width="226" height="54" viewBox="0 0 226 54" fill="none" xmlns="http://www.w3.org/2000/svg">
<path d="M72.116 40.324C70.484 40.324 69.02 40.036 67.724 39.46C66.428 38.86 65.396 38.056 64.628 37.048C63.884 36.04 63.476 34.924 63.404 33.7H68.48C68.576 34.468 68.948 35.104 69.596 35.608C70.268 36.112 71.096 36.364 72.08 36.364C73.04 36.364 73.784 36.172 74.312 35.788C74.864 35.404 75.14 34.912 75.14 34.312C75.14 33.664 74.804 33.184 74.132 32.872C73.484 32.536 72.44 32.176 71 31.792C69.512 31.432 68.288 31.06 67.328 30.676C66.392 30.292 65.576 29.704 64.88 28.912C64.208 28.12 63.872 27.052 63.872 25.708C63.872 24.604 64.184 23.596 64.808 22.684C65.456 21.772 66.368 21.052 67.544 20.524C68.744 19.996 70.148 19.732 71.756 19.732C74.132 19.732 76.028 20.332 77.444 21.532C78.86 22.708 79.64 24.304 79.784 26.32H74.96C74.888 25.528 74.552 24.904 73.952 24.448C73.376 23.968 72.596 23.728 71.612 23.728C70.7 23.728 69.992 23.896 69.488 24.232C69.008 24.568 68.768 25.036 68.768 25.636C68.768 26.308 69.104 26.824 69.776 27.184C70.448 27.52 71.492 27.868 72.908 28.228C74.348 28.588 75.536 28.96 76.472 29.344C77.408 29.728 78.212 30.328 78.884 31.144C79.58 31.936 79.94 32.992 79.964 34.312C79.964 35.464 79.64 36.496 78.992 37.408C78.368 38.32 77.456 39.04 76.256 39.568C75.08 40.072 73.7 40.324 72.116 40.324ZM86.6572 17.68C85.7692 17.68 85.0252 17.404 84.4252 16.852C83.8492 16.276 83.5612 15.568 83.5612 14.728C83.5612 13.888 83.8492 13.192 84.4252 12.64C85.0252 12.064 85.7692 11.776 86.6572 11.776C87.5452 11.776 88.2772 12.064 88.8532 12.64C89.4532 13.192 89.7532 13.888 89.7532 14.728C89.7532 15.568 89.4532 16.276 88.8532 16.852C88.2772 17.404 87.5452 17.68 86.6572 17.68ZM89.1412 20.056V40H84.1012V20.056H89.1412ZM118.889 19.768C121.337 19.768 123.305 20.524 124.793 22.036C126.305 23.524 127.061 25.612 127.061 28.3V40H122.021V28.984C122.021 27.424 121.625 26.236 120.833 25.42C120.041 24.58 118.961 24.16 117.593 24.16C116.225 24.16 115.133 24.58 114.317 25.42C113.525 26.236 113.129 27.424 113.129 28.984V40H108.089V28.984C108.089 27.424 107.693 26.236 106.901 25.42C106.109 24.58 105.029 24.16 103.661 24.16C102.269 24.16 101.165 24.58 100.349 25.42C99.5567 26.236 99.1607 27.424 99.1607 28.984V40H94.1207V20.056H99.1607V22.468C99.8087 21.628 100.637 20.968 101.645 20.488C102.677 20.008 103.805 19.768 105.029 19.768C106.589 19.768 107.981 20.104 109.205 20.776C110.429 21.424 111.377 22.36 112.049 23.584C112.697 22.432 113.633 21.508 114.857 20.812C116.105 20.116 117.449 19.768 118.889 19.768ZM155.83 35.212H145.822L144.166 40H138.874L147.91 14.836H153.778L162.814 40H157.486L155.83 35.212ZM154.462 31.18L150.826 20.668L147.189 31.18H154.462ZM171.159 14.872V30.424C171.159 32.128 171.603 33.436 172.491 34.348C173.379 35.236 174.627 35.68 176.235 35.68C177.867 35.68 179.127 35.236 180.015 34.348C180.903 33.436 181.347 32.128 181.347 30.424V14.872H186.423V30.388C186.423 32.524 185.955 34.336 185.019 35.824C184.107 37.288 182.871 38.392 181.311 39.136C179.775 39.88 178.059 40.252 176.163 40.252C174.291 40.252 172.587 39.88 171.051 39.136C169.539 38.392 168.339 37.288 167.451 35.824C166.563 34.336 166.119 32.524 166.119 30.388V14.872H171.159ZM197.161 24.196V33.844C197.161 34.516 197.317 35.008 197.629 35.32C197.965 35.608 198.517 35.752 199.285 35.752H201.625V40H198.457C194.209 40 192.085 37.936 192.085 33.808V24.196H189.709V20.056H192.085V15.124H197.161V20.056H201.625V24.196H197.161ZM214.106 40.324C212.186 40.324 210.458 39.904 208.922 39.064C207.386 38.2 206.174 36.988 205.286 35.428C204.422 33.868 203.99 32.068 203.99 30.028C203.99 27.988 204.434 26.188 205.322 24.628C206.234 23.068 207.47 21.868 209.03 21.028C210.59 20.164 212.33 19.732 214.25 19.732C216.17 19.732 217.91 20.164 219.47 21.028C221.03 21.868 222.254 23.068 223.142 24.628C224.054 26.188 224.51 27.988 224.51 30.028C224.51 32.068 224.042 33.868 223.106 35.428C222.194 36.988 220.946 38.2 219.362 39.064C217.802 39.904 216.05 40.324 214.106 40.324ZM214.106 35.932C215.018 35.932 215.87 35.716 216.662 35.284C217.478 34.828 218.126 34.156 218.606 33.268C219.086 32.38 219.326 31.3 219.326 30.028C219.326 28.132 218.822 26.68 217.814 25.672C216.83 24.64 215.618 24.124 214.178 24.124C212.738 24.124 211.526 24.64 210.542 25.672C209.582 26.68 209.102 28.132 209.102 30.028C209.102 31.924 209.57 33.388 210.506 34.42C211.466 35.428 212.666 35.932 214.106 35.932Z" fill="white"/>
<path d="M26 24H2C1.60218 24 1.22064 23.842 0.93934 23.5607C0.658035 23.2794 0.5 22.8978 0.5 22.5C0.5 22.1022 0.658035 21.7206 0.93934 21.4393C1.22064 21.158 1.60218 21 2 21H26C26.3978 21 26.7794 21.158 27.0607 21.4393C27.342 21.7206 27.5 22.1022 27.5 22.5C27.5 22.8978 27.342 23.2794 27.0607 23.5607C26.7794 23.842 26.3978 24 26 24V24ZM16 33H2C1.60218 33 1.22064 32.842 0.93934 32.5607C0.658035 32.2794 0.5 31.8978 0.5 31.5C0.5 31.1022 0.658035 30.7206 0.93934 30.4393C1.22064 30.158 1.60218 30 2 30H16C16.3978 30 16.7794 30.158 17.0607 30.4393C17.342 30.7206 17.5 31.1022 17.5 31.5C17.5 31.8978 17.342 32.2794 17.0607 32.5607C16.7794 32.842 16.3978 33 16 33Z" fill="white"/>
</svg>
