<svg width="64" height="64" viewBox="0 0 64 64" fill="none" xmlns="http://www.w3.org/2000/svg">
<path d="M34.8323 56.3952C34.8323 56.7676 34.759 57.1363 34.6165 57.4804C34.474 57.8244 34.2651 58.137 34.0018 58.4003C33.7385 58.6636 33.4259 58.8725 33.0819 59.015C32.7379 59.1575 32.3691 59.2308 31.9968 59.2308C31.2447 59.2308 30.5235 58.9321 29.9917 58.4003C29.46 57.8685 29.1612 57.1473 29.1612 56.3952C29.1612 55.6432 29.46 54.922 29.9917 54.3902C30.5235 53.8584 31.2447 53.5597 31.9968 53.5597C32.3691 53.5597 32.7379 53.633 33.0819 53.7755C33.4259 53.918 33.7385 54.1269 34.0018 54.3902C34.2651 54.6535 34.474 54.9661 34.6165 55.3101C34.759 55.6541 34.8323 56.0229 34.8323 56.3952ZM38.9139 46.9401L44.5292 57.9735C45.0319 58.9609 46.2313 59.3512 47.2187 58.8485C48.2062 58.3458 48.5965 57.1445 48.0938 56.157L43.4023 46.9401L38.9139 46.9401ZM20.601 46.9401L15.9095 56.157C15.4068 57.1445 15.7971 58.3458 16.7845 58.8485C17.772 59.3512 18.9714 58.9609 19.4741 57.9735L25.0894 46.9401H20.601Z" fill="#7EDAD2"/>
<path d="M7.00102 4.93921H57.002C58.11 4.93921 59.002 5.83123 59.002 6.93925C59.002 8.04727 58.11 8.93929 57.002 8.93929H7.00102C5.893 8.93929 5.00098 8.04727 5.00098 6.93925C5.00098 5.83123 5.893 4.93921 7.00102 4.93921Z" fill="#7EDAD2"/>
<path d="M27.4015 30.667H31.0016V41.0308H27.4015V30.667ZM20.2014 32.667H23.8014V41.0308H20.2014V32.667ZM13.0012 34.6671H16.6013V41.0308H13.0012V34.6671Z" fill="#7EDAD2"/>
<path d="M6.9981 3.94044C5.35337 3.94044 4.00196 5.29185 4.00196 6.93659C4.00196 8.58133 5.35337 9.94056 6.9981 9.94056V22.9389C6.9981 23.4912 7.44583 23.9389 7.99812 23.9389C8.55041 23.9389 8.99814 23.4912 8.99814 22.9389V9.94056H54.9991V45.9354H8.99814V26.9389C8.99814 26.3866 8.55041 25.9389 7.99812 25.9389C7.44583 25.9389 6.9981 26.3866 6.9981 26.9389V45.9354H4.99807C4.86675 45.9359 4.73681 45.9623 4.61568 46.013C4.49455 46.0638 4.38459 46.1378 4.29209 46.2311C4.1996 46.3243 4.12637 46.4348 4.07659 46.5563C4.02681 46.6779 4.00145 46.808 4.00196 46.9393C4.00299 47.2032 4.10826 47.456 4.29485 47.6426C4.48143 47.8291 4.73421 47.9344 4.99807 47.9354H19.0179L15.0158 55.7032C14.2694 57.1693 14.8618 58.9918 16.3284 59.7384C17.7941 60.4846 19.6155 59.8915 20.3616 58.4259L25.7016 47.9354H30.9966V53.1992C29.601 53.6355 28.5688 54.9324 28.5688 56.463C28.5688 58.3446 30.1209 59.8888 32.0025 59.8888C33.8841 59.8888 35.4264 58.3446 35.4264 56.463C35.4264 54.9302 34.3955 53.6316 32.9986 53.1973V47.9354H38.2956L43.6355 58.4259C44.3817 59.8915 46.2031 60.4846 47.6688 59.7384C49.1354 58.9918 49.7278 57.1693 48.9813 55.7032L44.8387 47.9354H58.9972C59.1285 47.936 59.2586 47.9106 59.3802 47.8608C59.5017 47.811 59.6122 47.7378 59.7054 47.6453C59.7987 47.5528 59.8728 47.4429 59.9235 47.3217C59.9742 47.2006 60.0006 47.0707 60.0011 46.9393C60.0016 46.8074 59.976 46.6766 59.9257 46.5545C59.8755 46.4325 59.8015 46.3216 59.7082 46.2283C59.6149 46.135 59.504 46.061 59.382 46.0108C59.2599 45.9605 59.1292 45.9349 58.9972 45.9354H56.9991V9.94056C58.6429 9.93946 60.0011 8.58066 60.0011 6.93659C60.0011 5.29185 58.6419 3.94044 56.9971 3.94044H48.7665C48.2142 3.93828 47.7647 4.38425 47.7626 4.93655C47.7606 5.4919 48.2112 5.94265 48.7665 5.94048H56.9971C57.5685 5.94048 58.0011 6.36528 58.0011 6.93659C58.0011 7.5079 57.5685 7.94052 56.9971 7.94052H6.9981C6.4268 7.94052 5.99417 7.5079 5.99417 6.93659C5.99417 6.36528 6.4268 5.94048 6.9981 5.94048H44.7645C45.3199 5.94266 45.7706 5.4919 45.7684 4.93655C45.7664 4.38425 45.3168 3.93827 44.7645 3.94044H6.9981ZM45.0008 13.8469C41.1466 13.8469 37.9948 16.9908 37.9948 20.8451C37.9948 24.6993 41.1466 27.8491 45.0008 27.8491C48.855 27.8491 51.999 24.6993 51.999 20.8451C51.999 16.9908 48.855 13.8469 45.0008 13.8469ZM12.9982 14.9133C12.7263 14.9135 12.4657 15.0217 12.2734 15.2139C12.0812 15.4062 11.973 15.6668 11.9728 15.9387C11.973 16.2106 12.0812 16.4713 12.2734 16.6635C12.4657 16.8558 12.7263 16.9639 12.9982 16.9641C13.2701 16.9639 13.5308 16.8558 13.723 16.6635C13.9153 16.4713 14.0234 16.2106 14.0236 15.9387C14.0234 15.6668 13.9153 15.4062 13.723 15.2139C13.5308 15.0217 13.2701 14.9135 12.9982 14.9133ZM17.0022 14.9387C16.8707 14.9379 16.7404 14.9631 16.6186 15.0128C16.4969 15.0624 16.3861 15.1356 16.2927 15.2282C16.1993 15.3207 16.125 15.4307 16.0741 15.552C16.0233 15.6732 15.9968 15.8033 15.9963 15.9348C15.9958 16.067 16.0215 16.1979 16.0719 16.3201C16.1223 16.4422 16.1964 16.5532 16.2899 16.6466C16.3834 16.7399 16.4946 16.8138 16.6168 16.8639C16.7391 16.9141 16.8701 16.9395 17.0022 16.9387H34.9987C35.13 16.9382 35.2599 16.9119 35.3811 16.8611C35.5022 16.8104 35.6121 16.7363 35.7046 16.6431C35.7971 16.5499 35.8704 16.4393 35.9202 16.3178C35.9699 16.1963 35.9953 16.0661 35.9948 15.9348C35.9937 15.6709 35.8885 15.4182 35.7019 15.2316C35.5153 15.045 35.2625 14.9397 34.9987 14.9387L17.0022 14.9387ZM43.9969 15.9465V20.5423L41.45 24.3744C40.5517 23.4707 39.9968 22.2262 39.9968 20.8451C39.9968 18.4157 41.7079 16.4072 43.9969 15.9465ZM45.9969 15.9465C47.9661 16.34 49.5052 17.8781 49.8993 19.847H45.9969V15.9465ZM12.9982 19.9134C12.7263 19.9137 12.4657 20.0218 12.2734 20.214C12.0812 20.4063 11.973 20.6669 11.9728 20.9388C11.973 21.2107 12.0812 21.4714 12.2734 21.6636C12.4657 21.8559 12.7263 21.964 12.9982 21.9642C13.2701 21.964 13.5308 21.8559 13.723 21.6636C13.9153 21.4714 14.0234 21.2107 14.0236 20.9388C14.0234 20.6669 13.9153 20.4063 13.723 20.214C13.5308 20.0218 13.2701 19.9137 12.9982 19.9134ZM17.0022 19.9368C16.8701 19.9361 16.7391 19.9615 16.6168 20.0117C16.4946 20.0618 16.3834 20.1357 16.2899 20.229C16.1964 20.3224 16.1223 20.4334 16.0719 20.5555C16.0215 20.6777 15.9958 20.8086 15.9963 20.9408C15.9968 21.0723 16.0233 21.2024 16.0741 21.3236C16.125 21.4449 16.1993 21.5549 16.2927 21.6474C16.3861 21.74 16.4969 21.8132 16.6186 21.8628C16.7404 21.9125 16.8707 21.9377 17.0022 21.9369H26.9966C27.1279 21.9374 27.258 21.912 27.3795 21.8623C27.5011 21.8125 27.6116 21.7392 27.7048 21.6468C27.798 21.5543 27.8721 21.4443 27.9229 21.3232C27.9736 21.202 28 21.0721 28.0005 20.9408C28.001 20.8088 27.9754 20.678 27.9251 20.556C27.8748 20.4339 27.8009 20.3231 27.7076 20.2297C27.6143 20.1364 27.5034 20.0625 27.3813 20.0122C27.2593 19.9619 27.1285 19.9363 26.9966 19.9368L17.0022 19.9368ZM45.534 21.849H49.8974C49.4359 24.1369 47.4295 25.8491 45.0008 25.8491C44.3312 25.8491 43.6967 25.7124 43.114 25.476L45.534 21.849ZM12.9982 24.9135C12.7263 24.9137 12.4657 25.0219 12.2734 25.2141C12.0812 25.4064 11.973 25.667 11.9728 25.9389C11.973 26.2108 12.0812 26.4715 12.2734 26.6637C12.4657 26.856 12.7263 26.9641 12.9982 26.9643C13.2701 26.9641 13.5308 26.856 13.723 26.6637C13.9153 26.4715 14.0234 26.2108 14.0236 25.9389C14.0234 25.667 13.9153 25.4064 13.723 25.2141C13.5308 25.0219 13.2701 24.9137 12.9982 24.9135ZM17.0022 24.9408C16.8707 24.9401 16.7404 24.9652 16.6186 25.0149C16.4969 25.0646 16.3861 25.1378 16.2927 25.2303C16.1993 25.3228 16.125 25.4328 16.0741 25.5541C16.0233 25.6754 15.9968 25.8055 15.9963 25.9369C15.9955 26.0693 16.021 26.2004 16.0713 26.3228C16.1216 26.4452 16.1957 26.5564 16.2892 26.6499C16.3828 26.7435 16.494 26.8176 16.6164 26.8678C16.7387 26.9181 16.8699 26.9436 17.0022 26.9428H34.9987C35.1302 26.9423 35.2602 26.9159 35.3815 26.865C35.5028 26.8142 35.6128 26.7399 35.7053 26.6465C35.7978 26.5531 35.871 26.4423 35.9207 26.3205C35.9704 26.1988 35.9955 26.0685 35.9948 25.937C35.9937 25.6731 35.8885 25.4203 35.7019 25.2337C35.5153 25.0472 35.2625 24.9419 34.9987 24.9409L17.0022 24.9408ZM27.395 29.6655C27.1298 29.6666 26.8758 29.773 26.689 29.9612C26.5022 30.1495 26.3979 30.4042 26.3989 30.6695V41.0271C26.3979 41.2923 26.5022 41.5471 26.689 41.7353C26.8758 41.9236 27.1298 42.03 27.395 42.031H30.9966C31.1288 42.0318 31.2598 42.0063 31.382 41.9562C31.5043 41.906 31.6154 41.8321 31.7089 41.7388C31.8024 41.6454 31.8765 41.5345 31.9269 41.4123C31.9773 41.2902 32.003 41.1592 32.0025 41.0271V30.6695C32.003 30.5373 31.9773 30.4064 31.9269 30.2842C31.8765 30.1621 31.8024 30.0511 31.7089 29.9578C31.6154 29.8644 31.5043 29.7905 31.382 29.7404C31.2598 29.6902 31.1288 29.6648 30.9966 29.6656L27.395 29.6655ZM36.9987 29.9136C36.7268 29.9138 36.4661 30.0219 36.2739 30.2142C36.0816 30.4064 35.9735 30.6671 35.9733 30.939C35.9735 31.2109 36.0816 31.4716 36.2739 31.6638C36.4661 31.8561 36.7268 31.9642 36.9987 31.9644C37.2706 31.9642 37.5313 31.8561 37.7235 31.6638C37.9158 31.4716 38.0239 31.2109 38.0241 30.939C38.0239 30.6671 37.9158 30.4064 37.7235 30.2142C37.5313 30.0219 37.2706 29.9138 36.9987 29.9136ZM41.0007 29.939C40.8694 29.9385 40.7393 29.9638 40.6177 30.0136C40.4962 30.0634 40.3857 30.1366 40.2925 30.2291C40.1992 30.3216 40.1251 30.4316 40.0744 30.5527C40.0237 30.6738 39.9973 30.8038 39.9968 30.9351C39.9963 31.0671 40.0219 31.1979 40.0722 31.3199C40.1224 31.4419 40.1964 31.5528 40.2897 31.6461C40.383 31.7395 40.4939 31.8134 40.6159 31.8637C40.738 31.9139 40.8688 31.9395 41.0007 31.939H45.0008C45.1321 31.9385 45.2621 31.9121 45.3832 31.8614C45.5043 31.8107 45.6143 31.7366 45.7068 31.6434C45.7993 31.5502 45.8725 31.4396 45.9223 31.3181C45.9721 31.1966 45.9974 31.0664 45.9969 30.9351C45.9959 30.6712 45.8906 30.4185 45.704 30.2319C45.5174 30.0453 45.2647 29.94 45.0008 29.939L41.0007 29.939ZM20.1976 31.6656C19.9334 31.6667 19.6803 31.7722 19.4937 31.9592C19.3071 32.1462 19.202 32.3995 19.2015 32.6637V41.0271C19.2005 41.2923 19.3048 41.5471 19.4916 41.7353C19.6784 41.9236 19.9324 42.03 20.1976 42.031H23.7992C23.9307 42.0308 24.0608 42.0046 24.1822 41.954C24.3035 41.9033 24.4137 41.8293 24.5064 41.736C24.5991 41.6428 24.6725 41.5322 24.7225 41.4105C24.7724 41.2889 24.7978 41.1586 24.7973 41.0271V32.6637C24.7967 32.3991 24.6914 32.1456 24.5044 31.9585C24.3173 31.7715 24.0638 31.6661 23.7992 31.6656H20.1976ZM28.3989 31.6656H30.0005V40.031H28.3989V31.6656ZM13.0002 33.6676C12.735 33.6666 12.4802 33.771 12.2919 33.9578C12.1037 34.1446 11.9973 34.3985 11.9963 34.6637V41.0271C11.9958 41.1591 12.0214 41.2899 12.0716 41.4119C12.1219 41.5339 12.1959 41.6448 12.2892 41.7381C12.3825 41.8314 12.4934 41.9054 12.6154 41.9556C12.7374 42.0059 12.8682 42.0315 13.0002 42.031H16.596C16.7279 42.0315 16.8587 42.0059 16.9807 41.9556C17.1028 41.9054 17.2136 41.8314 17.307 41.7381C17.4003 41.6448 17.4742 41.5339 17.5245 41.4119C17.5748 41.2899 17.6004 41.1591 17.5999 41.0271V34.6637C17.5988 34.3985 17.4925 34.1446 17.3042 33.9578C17.1159 33.771 16.8612 33.6666 16.596 33.6676H13.0002ZM21.2015 33.6676H22.7953V40.031H21.2015V33.6676ZM36.9987 34.9137C36.7268 34.9139 36.4661 35.0221 36.2739 35.2143C36.0816 35.4066 35.9735 35.6672 35.9733 35.9391C35.9735 36.211 36.0816 36.4717 36.2739 36.6639C36.4661 36.8562 36.7268 36.9643 36.9987 36.9645C37.2706 36.9643 37.5313 36.8562 37.7235 36.6639C37.9158 36.4717 38.0239 36.211 38.0241 35.9391C38.0239 35.6672 37.9158 35.4066 37.7235 35.2143C37.5313 35.022 37.2706 34.9139 36.9987 34.9137ZM41.0007 34.9371C40.8688 34.9366 40.738 34.9622 40.6159 35.0125C40.4939 35.0628 40.383 35.1367 40.2897 35.23C40.1964 35.3234 40.1224 35.4342 40.0722 35.5563C40.0219 35.6783 39.9963 35.8091 39.9968 35.9411C39.9973 36.0724 40.0237 36.2023 40.0744 36.3235C40.1251 36.4446 40.1992 36.5546 40.2925 36.647C40.3857 36.7395 40.4962 36.8128 40.6177 36.8626C40.7393 36.9123 40.8694 36.9377 41.0007 36.9372H50.9951C51.1264 36.9377 51.2565 36.9123 51.3781 36.8626C51.4996 36.8128 51.6101 36.7396 51.7033 36.6471C51.7966 36.5546 51.8706 36.4446 51.9214 36.3235C51.9721 36.2023 51.9985 36.0724 51.999 35.9411C51.9995 35.8091 51.9739 35.6783 51.9236 35.5563C51.8734 35.4342 51.7994 35.3234 51.7061 35.23C51.6128 35.1367 51.5019 35.0628 51.3799 35.0125C51.2578 34.9622 51.127 34.9366 50.9951 34.9371L41.0007 34.9371ZM13.9963 35.6676H15.5979V40.031H13.9963V35.6676ZM36.9987 39.9138C36.7268 39.914 36.4661 40.0221 36.2739 40.2144C36.0816 40.4066 35.9735 40.6673 35.9733 40.9392C35.9735 41.2111 36.0816 41.4718 36.2739 41.664C36.4661 41.8563 36.7268 41.9644 36.9987 41.9646C37.2706 41.9644 37.5313 41.8563 37.7235 41.664C37.9158 41.4718 38.0239 41.2111 38.0241 40.9392C38.0239 40.6673 37.9158 40.4066 37.7235 40.2144C37.5313 40.0221 37.2706 39.914 36.9987 39.9138ZM41.0007 39.941C40.8694 39.9405 40.7393 39.9659 40.6177 40.0156C40.4962 40.0654 40.3857 40.1386 40.2925 40.2311C40.1992 40.3236 40.1251 40.4336 40.0744 40.5547C40.0237 40.6759 39.9973 40.8058 39.9968 40.9371C39.996 41.0693 40.0215 41.2003 40.0716 41.3225C40.1218 41.4448 40.1957 41.5559 40.289 41.6494C40.3824 41.743 40.4933 41.8171 40.6155 41.8675C40.7376 41.9178 40.8686 41.9435 41.0007 41.943H45.0008C45.1323 41.9425 45.2624 41.9161 45.3837 41.8652C45.5049 41.8144 45.615 41.7401 45.7075 41.6467C45.8 41.5532 45.8732 41.4425 45.9229 41.3207C45.9725 41.199 45.9977 41.0686 45.9969 40.9371C45.9959 40.6733 45.8906 40.4205 45.704 40.2339C45.5174 40.0473 45.2647 39.942 45.0008 39.941H41.0007ZM21.2093 47.9392H23.4555L18.5804 57.5195C18.3211 58.0287 17.7438 58.2162 17.2346 57.957C16.7263 57.6982 16.5382 57.118 16.7971 56.6093L21.2093 47.9392ZM40.5417 47.9392H42.7859L47.2001 56.6093C47.4591 57.118 47.2709 57.6982 46.7626 57.957C46.2534 58.2162 45.6761 58.0287 45.4168 57.5195L40.5417 47.9392ZM32.0025 55.0312C32.8032 55.0312 33.4264 55.6621 33.4264 56.4628C33.4264 57.2635 32.8032 57.8867 32.0025 57.8867C31.2018 57.8867 30.5689 57.2635 30.5689 56.4628C30.5689 55.6621 31.2018 55.0312 32.0025 55.0312Z" fill="#424241"/>
</svg>
