<?xml version="1.0" encoding="utf-8"?>
<!-- Generator: Adobe Illustrator 27.0.0, SVG Export Plug-In . SVG Version: 6.00 Build 0)  -->
<svg version="1.1" id="Layer_1" xmlns="http://www.w3.org/2000/svg" xmlns:xlink="http://www.w3.org/1999/xlink" x="0px" y="0px"
	 viewBox="0 0 270 273.5" style="enable-background:new 0 0 270 273.5;" xml:space="preserve">
<style type="text/css">
	.st0{fill:#C3B1E1;}
</style>
<path class="st0" d="M97.2,119.2v35.1c0,3-2.4,5.4-5.4,5.4H7.7c-3,0-5.4-2.4-5.4-5.4v-35.1c0-3,2.4-5.4,5.4-5.4h84.1
	C94.8,113.8,97.2,116.2,97.2,119.2z"/>
<path class="st0" d="M267.8,119.2v35.1c0,3-2.4,5.4-5.4,5.4h-84.1c-3,0-5.4-2.4-5.4-5.4v-35.1c0-3,2.4-5.4,5.4-5.4h84.1
	C265.3,113.8,267.8,116.2,267.8,119.2z"/>
<path class="st0" d="M152.6,0l-35.1,0c-3,0-5.4,2.4-5.4,5.4l0,84.1c0,3,2.4,5.4,5.4,5.4l35.1,0c3,0,5.4-2.4,5.4-5.4l0-84.1
	C158,2.4,155.6,0,152.6,0z"/>
<path class="st0" d="M152.6,174.5l-35.1,0c-3,0-5.4,2.4-5.4,5.4l0,84.1c0,3,2.4,5.4,5.4,5.4h35.1c3,0,5.4-2.4,5.4-5.4l0-84.1
	C158,176.9,155.6,174.5,152.6,174.5z"/>
</svg>
