<?xml version="1.0" encoding="utf-8"?>
<!-- Generator: Adobe Illustrator 26.0.1, SVG Export Plug-In . SVG Version: 6.00 Build 0)  -->
<svg version="1.1" id="Layer_1" xmlns="http://www.w3.org/2000/svg" xmlns:xlink="http://www.w3.org/1999/xlink" x="0px" y="0px"
	 viewBox="0 0 223.84 49.15" style="enable-background:new 0 0 223.84 49.15;" xml:space="preserve">
<style type="text/css">
	.st0{fill:#41C363;}
</style>
<g>
	<g>
		<g>
			<polygon id="XMLID_47_" class="st0" points="32.49,40.7 17.63,40.7 16.05,45.56 34.07,45.56 			"/>
			<polygon id="XMLID_46_" points="26.32,4.14 33.45,4.14 46.12,43.13 38.99,43.13 			"/>
			<polygon id="XMLID_45_" points="23.8,4.14 16.67,4.14 4,43.13 11.13,43.13 			"/>
			<g>
				<polygon id="XMLID_44_" points="210.75,4.14 183.2,4.14 183.2,9.86 193.76,9.86 193.76,43.13 200.2,43.13 200.2,9.86 
					210.75,9.86 				"/>
				<polygon id="XMLID_43_" points="144.65,4.14 144.65,43.13 169.69,43.13 169.69,37.41 151.09,37.41 151.09,26.32 167.03,26.32 
					167.03,20.59 151.09,20.59 151.09,9.86 169.69,9.86 169.69,4.14 				"/>
				<polygon id="XMLID_42_" points="77.78,4.14 68.66,33.28 59.55,4.15 59.54,4.14 52.42,4.14 65.09,43.13 72.24,43.13 84.91,4.14 
									"/>
				<polygon id="XMLID_41_" points="103.77,4.14 98.28,4.14 98.28,43.13 104.72,43.13 104.72,17.06 122.31,43.13 127.8,43.13 
					127.8,4.14 121.36,4.14 121.36,30.21 				"/>
			</g>
		</g>
		<g id="XMLID_33_">
			<g id="XMLID_34_">
				<g id="XMLID_35_">
					<path id="XMLID_36_" d="M217.14,9.85c-1.58,0-2.86-1.28-2.86-2.86s1.28-2.86,2.86-2.86c1.58,0,2.86,1.28,2.86,2.86
						S218.72,9.85,217.14,9.85z M217.14,4.66c-1.28,0-2.29,1.03-2.29,2.33s1.01,2.33,2.29,2.33s2.28-1.03,2.28-2.33
						S218.42,4.66,217.14,4.66z M217.74,8.54l-0.63-1.22h-0.4v1.22h-0.57V5.45h1.16c0.58,0,1,0.43,1,0.95
						c0,0.43-0.27,0.72-0.61,0.84l0.69,1.3H217.74z M217.24,5.93h-0.52v0.93h0.52c0.3,0,0.51-0.21,0.51-0.47
						C217.74,6.13,217.54,5.93,217.24,5.93z"/>
				</g>
			</g>
		</g>
	</g>
</g>
</svg>
